REM DIRINDEX 1\2\4\8,1\2\4\9,1\2\4\10,1\2\5\11,1\2\5\12,1\2\5\13,1\2\5\14,1\2\5\15,1\3\6\16,1\3\6\17,1\3\6\18,1\3\7\19,1\3\7\20,1\3\7\21,1\3\7\22,1\3\7\23
REM DIRNAME "folder01","folder02","folder03","folder04","folder05","folder06","folder07","folder08","folder09","folder10","folder11","folder12","folder13","folder14","folder15","folder16","folder17","folder18","folder19","folder20","folder21","folder22","folder23"
TITLE ""
FILE "LR_black_phrase_S07.mp3" MP3
  TRACK 01 AUDIO
    TITLE "0:"
    INDEX 01 00:00:00
  TRACK 02 AUDIO
    TITLE "19:cjc171_15601"
    INDEX 01 00:00:16
  TRACK 03 AUDIO
    TITLE "0:"
    INDEX 01 00:01:53
  TRACK 04 AUDIO
    TITLE "20:cjc171_15602"
    INDEX 01 00:02:17
  TRACK 05 AUDIO
    TITLE "0:"
    INDEX 01 00:04:51
  TRACK 06 AUDIO
    TITLE "21:cjc171_15603"
    INDEX 01 00:05:49
  TRACK 07 AUDIO
    TITLE "0:"
    INDEX 01 00:08:65
  TRACK 08 AUDIO
    TITLE "22:cjc171_15604"
    INDEX 01 00:09:29
  TRACK 09 AUDIO
    TITLE "0:"
    INDEX 01 00:12:27
  TRACK 10 AUDIO
    TITLE "23:cjc171_15605"
    INDEX 01 00:12:55
  TRACK 11 AUDIO
    TITLE "0:"
    INDEX 01 00:15:51
  TRACK 12 AUDIO
    TITLE "19:cjc171_15606"
    INDEX 01 00:16:58
  TRACK 13 AUDIO
    TITLE "0:"
    INDEX 01 00:18:06
  TRACK 14 AUDIO
    TITLE "20:cjc171_15607"
    INDEX 01 00:18:45
  TRACK 15 AUDIO
    TITLE "0:"
    INDEX 01 00:21:16
  TRACK 16 AUDIO
    TITLE "21:cjc171_15608"
    INDEX 01 00:22:18
  TRACK 17 AUDIO
    TITLE "0:"
    INDEX 01 00:24:28
  TRACK 18 AUDIO
    TITLE "22:cjc171_15609"
    INDEX 01 00:24:68
  TRACK 19 AUDIO
    TITLE "0:"
    INDEX 01 00:27:03
  TRACK 20 AUDIO
    TITLE "23:cjc171_15610"
    INDEX 01 00:27:33
  TRACK 21 AUDIO
    TITLE "0:"
    INDEX 01 00:29:43
  TRACK 22 AUDIO
    TITLE "19:cjc171_15611"
    INDEX 01 00:30:51
  TRACK 23 AUDIO
    TITLE "0:"
    INDEX 01 00:32:10
  TRACK 24 AUDIO
    TITLE "20:cjc171_15612"
    INDEX 01 00:32:46
  TRACK 25 AUDIO
    TITLE "0:"
    INDEX 01 00:33:61
  TRACK 26 AUDIO
    TITLE "21:cjc171_15613"
    INDEX 01 00:34:56
  TRACK 27 AUDIO
    TITLE "0:"
    INDEX 01 00:36:39
  TRACK 28 AUDIO
    TITLE "22:cjc171_15614"
    INDEX 01 00:37:00
  TRACK 29 AUDIO
    TITLE "0:"
    INDEX 01 00:39:24
  TRACK 30 AUDIO
    TITLE "23:cjc171_15615"
    INDEX 01 00:39:51
  TRACK 31 AUDIO
    TITLE "0:"
    INDEX 01 00:41:72
  TRACK 32 AUDIO
    TITLE "19:cjc171_15616"
    INDEX 01 00:42:69
  TRACK 33 AUDIO
    TITLE "0:"
    INDEX 01 00:44:13
  TRACK 34 AUDIO
    TITLE "20:cjc171_15617"
    INDEX 01 00:44:51
  TRACK 35 AUDIO
    TITLE "0:"
    INDEX 01 00:46:50
  TRACK 36 AUDIO
    TITLE "21:cjc171_15618"
    INDEX 01 00:47:49
  TRACK 37 AUDIO
    TITLE "0:"
    INDEX 01 00:49:40
  TRACK 38 AUDIO
    TITLE "22:cjc171_15619"
    INDEX 01 00:50:00
  TRACK 39 AUDIO
    TITLE "0:"
    INDEX 01 00:52:29
  TRACK 40 AUDIO
    TITLE "23:cjc171_15620"
    INDEX 01 00:52:52
  TRACK 41 AUDIO
    TITLE "0:"
    INDEX 01 00:55:05
  TRACK 42 AUDIO
    TITLE "19:cjc171_15621"
    INDEX 01 00:56:11
  TRACK 43 AUDIO
    TITLE "0:"
    INDEX 01 00:57:30
  TRACK 44 AUDIO
    TITLE "20:cjc171_15622"
    INDEX 01 00:57:67
  TRACK 45 AUDIO
    TITLE "0:"
    INDEX 01 01:00:22
  TRACK 46 AUDIO
    TITLE "21:cjc171_15623"
    INDEX 01 01:01:22
  TRACK 47 AUDIO
    TITLE "0:"
    INDEX 01 01:03:62
  TRACK 48 AUDIO
    TITLE "22:cjc171_15624"
    INDEX 01 01:04:28
  TRACK 49 AUDIO
    TITLE "0:"
    INDEX 01 01:07:26
  TRACK 50 AUDIO
    TITLE "23:cjc171_15625"
    INDEX 01 01:07:58
  TRACK 51 AUDIO
    TITLE "0:"
    INDEX 01 01:10:56
  TRACK 52 AUDIO
    TITLE "19:cjc171_15626"
    INDEX 01 01:11:63
  TRACK 53 AUDIO
    TITLE "0:"
    INDEX 01 01:13:07
  TRACK 54 AUDIO
    TITLE "20:cjc171_15627"
    INDEX 01 01:13:46
  TRACK 55 AUDIO
    TITLE "0:"
    INDEX 01 01:14:73
  TRACK 56 AUDIO
    TITLE "21:cjc171_15628"
    INDEX 01 01:15:73
  TRACK 57 AUDIO
    TITLE "0:"
    INDEX 01 01:18:24
  TRACK 58 AUDIO
    TITLE "22:cjc171_15629"
    INDEX 01 01:18:63
  TRACK 59 AUDIO
    TITLE "0:"
    INDEX 01 01:21:36
  TRACK 60 AUDIO
    TITLE "23:cjc171_15630"
    INDEX 01 01:21:70
  TRACK 61 AUDIO
    TITLE "0:"
    INDEX 01 01:24:42
  TRACK 62 AUDIO
    TITLE "19:cjc171_15631"
    INDEX 01 01:25:52
  TRACK 63 AUDIO
    TITLE "0:"
    INDEX 01 01:27:09
  TRACK 64 AUDIO
    TITLE "20:cjc171_15632"
    INDEX 01 01:27:47
  TRACK 65 AUDIO
    TITLE "0:"
    INDEX 01 01:29:18
  TRACK 66 AUDIO
    TITLE "21:cjc171_15633"
    INDEX 01 01:30:18
  TRACK 67 AUDIO
    TITLE "0:"
    INDEX 01 01:32:14
  TRACK 68 AUDIO
    TITLE "22:cjc171_15634"
    INDEX 01 01:32:48
  TRACK 69 AUDIO
    TITLE "0:"
    INDEX 01 01:34:45
  TRACK 70 AUDIO
    TITLE "23:cjc171_15635"
    INDEX 01 01:34:68
  TRACK 71 AUDIO
    TITLE "0:"
    INDEX 01 01:36:65
  TRACK 72 AUDIO
    TITLE "19:cjc171_15636"
    INDEX 01 01:37:67
  TRACK 73 AUDIO
    TITLE "0:"
    INDEX 01 01:39:16
  TRACK 74 AUDIO
    TITLE "20:cjc171_15637"
    INDEX 01 01:39:50
  TRACK 75 AUDIO
    TITLE "0:"
    INDEX 01 01:43:22
  TRACK 76 AUDIO
    TITLE "21:cjc171_15638"
    INDEX 01 01:44:22
  TRACK 77 AUDIO
    TITLE "0:"
    INDEX 01 01:46:22
  TRACK 78 AUDIO
    TITLE "22:cjc171_15639"
    INDEX 01 01:46:58
  TRACK 79 AUDIO
    TITLE "0:"
    INDEX 01 01:48:62
  TRACK 80 AUDIO
    TITLE "23:cjc171_15640"
    INDEX 01 01:49:07
  TRACK 81 AUDIO
    TITLE "0:"
    INDEX 01 01:51:12
  TRACK 82 AUDIO
    TITLE "19:cjc171_15641"
    INDEX 01 01:52:13
  TRACK 83 AUDIO
    TITLE "0:"
    INDEX 01 01:53:56
  TRACK 84 AUDIO
    TITLE "20:cjc171_15642"
    INDEX 01 01:54:20
  TRACK 85 AUDIO
    TITLE "0:"
    INDEX 01 01:55:45
  TRACK 86 AUDIO
    TITLE "21:cjc171_15643"
    INDEX 01 01:56:42
  TRACK 87 AUDIO
    TITLE "0:"
    INDEX 01 01:58:59
  TRACK 88 AUDIO
    TITLE "22:cjc171_15644"
    INDEX 01 01:59:27
  TRACK 89 AUDIO
    TITLE "0:"
    INDEX 01 02:01:53
  TRACK 90 AUDIO
    TITLE "23:cjc171_15645"
    INDEX 01 02:02:10
  TRACK 91 AUDIO
    TITLE "0:"
    INDEX 01 02:04:36
  TRACK 92 AUDIO
    TITLE "19:cjc171_15646"
    INDEX 01 02:05:39
  TRACK 93 AUDIO
    TITLE "0:"
    INDEX 01 02:06:58
  TRACK 94 AUDIO
    TITLE "20:cjc171_15647"
    INDEX 01 02:07:23
  TRACK 95 AUDIO
    TITLE "0:"
    INDEX 01 02:10:01
  TRACK 96 AUDIO
    TITLE "21:cjc171_15648"
    INDEX 01 02:10:70
  TRACK 97 AUDIO
    TITLE "0:"
    INDEX 01 02:12:55
  TRACK 98 AUDIO
    TITLE "22:cjc171_15649"
    INDEX 01 02:13:21
  TRACK 99 AUDIO
    TITLE "0:"
    INDEX 01 02:15:03
  TRACK 100 AUDIO
    TITLE "23:cjc171_15650"
    INDEX 01 02:15:36
  TRACK 101 AUDIO
    TITLE "0:"
    INDEX 01 02:17:17
  TRACK 102 AUDIO
    TITLE "19:cjc171_15651"
    INDEX 01 02:18:28
  TRACK 103 AUDIO
    TITLE "0:"
    INDEX 01 02:19:43
  TRACK 104 AUDIO
    TITLE "20:cjc171_15652"
    INDEX 01 02:20:10
  TRACK 105 AUDIO
    TITLE "0:"
    INDEX 01 02:22:67
  TRACK 106 AUDIO
    TITLE "21:cjc171_15653"
    INDEX 01 02:23:67
  TRACK 107 AUDIO
    TITLE "0:"
    INDEX 01 02:26:22
  TRACK 108 AUDIO
    TITLE "22:cjc171_15654"
    INDEX 01 02:26:57
  TRACK 109 AUDIO
    TITLE "0:"
    INDEX 01 02:29:10
  TRACK 110 AUDIO
    TITLE "23:cjc171_15655"
    INDEX 01 02:29:30
  TRACK 111 AUDIO
    TITLE "0:"
    INDEX 01 02:31:56
  TRACK 112 AUDIO
    TITLE "19:cjc171_15656"
    INDEX 01 02:32:52
  TRACK 113 AUDIO
    TITLE "0:"
    INDEX 01 02:33:51
  TRACK 114 AUDIO
    TITLE "20:cjc171_15657"
    INDEX 01 02:34:10
  TRACK 115 AUDIO
    TITLE "0:"
    INDEX 01 02:35:27
  TRACK 116 AUDIO
    TITLE "21:cjc171_15658"
    INDEX 01 02:36:26
  TRACK 117 AUDIO
    TITLE "0:"
    INDEX 01 02:38:27
  TRACK 118 AUDIO
    TITLE "22:cjc171_15659"
    INDEX 01 02:38:60
  TRACK 119 AUDIO
    TITLE "0:"
    INDEX 01 02:40:48
  TRACK 120 AUDIO
    TITLE "23:cjc171_15660"
    INDEX 01 02:40:67
  TRACK 121 AUDIO
    TITLE "0:"
    INDEX 01 02:42:54
  TRACK 122 AUDIO
    TITLE "19:cjc171_15661"
    INDEX 01 02:43:50
  TRACK 123 AUDIO
    TITLE "0:"
    INDEX 01 02:44:63
  TRACK 124 AUDIO
    TITLE "20:cjc171_15662"
    INDEX 01 02:45:27
  TRACK 125 AUDIO
    TITLE "0:"
    INDEX 01 02:48:31
  TRACK 126 AUDIO
    TITLE "21:cjc171_15663"
    INDEX 01 02:49:33
  TRACK 127 AUDIO
    TITLE "0:"
    INDEX 01 02:52:06
  TRACK 128 AUDIO
    TITLE "22:cjc171_15664"
    INDEX 01 02:52:45
  TRACK 129 AUDIO
    TITLE "0:"
    INDEX 01 02:55:00
  TRACK 130 AUDIO
    TITLE "23:cjc171_15665"
    INDEX 01 02:55:31
  TRACK 131 AUDIO
    TITLE "0:"
    INDEX 01 02:57:64
  TRACK 132 AUDIO
    TITLE "19:cjc171_15666"
    INDEX 01 02:58:69
  TRACK 133 AUDIO
    TITLE "0:"
    INDEX 01 03:00:09
  TRACK 134 AUDIO
    TITLE "20:cjc171_15667"
    INDEX 01 03:00:48
  TRACK 135 AUDIO
    TITLE "0:"
    INDEX 01 03:03:15
  TRACK 136 AUDIO
    TITLE "21:cjc171_15668"
    INDEX 01 03:04:15
  TRACK 137 AUDIO
    TITLE "0:"
    INDEX 01 03:06:08
  TRACK 138 AUDIO
    TITLE "22:cjc171_15669"
    INDEX 01 03:06:47
  TRACK 139 AUDIO
    TITLE "0:"
    INDEX 01 03:08:34
  TRACK 140 AUDIO
    TITLE "23:cjc171_15670"
    INDEX 01 03:08:65
  TRACK 141 AUDIO
    TITLE "0:"
    INDEX 01 03:10:54
  TRACK 142 AUDIO
    TITLE "19:cjc171_15671"
    INDEX 01 03:11:54
  TRACK 143 AUDIO
    TITLE "0:"
    INDEX 01 03:12:59
  TRACK 144 AUDIO
    TITLE "20:cjc171_15672"
    INDEX 01 03:13:20
  TRACK 145 AUDIO
    TITLE "0:"
    INDEX 01 03:14:31
  TRACK 146 AUDIO
    TITLE "21:cjc171_15673"
    INDEX 01 03:15:30
  TRACK 147 AUDIO
    TITLE "0:"
    INDEX 01 03:17:74
  TRACK 148 AUDIO
    TITLE "22:cjc171_15674"
    INDEX 01 03:18:34
  TRACK 149 AUDIO
    TITLE "0:"
    INDEX 01 03:21:05
  TRACK 150 AUDIO
    TITLE "23:cjc171_15675"
    INDEX 01 03:21:29
  TRACK 151 AUDIO
    TITLE "0:"
    INDEX 01 03:24:02
  TRACK 152 AUDIO
    TITLE "19:cjc171_15676"
    INDEX 01 03:24:72
  TRACK 153 AUDIO
    TITLE "0:"
    INDEX 01 03:26:18
  TRACK 154 AUDIO
    TITLE "20:cjc171_15677"
    INDEX 01 03:26:50
  TRACK 155 AUDIO
    TITLE "0:"
    INDEX 01 03:28:19
  TRACK 156 AUDIO
    TITLE "21:cjc171_15678"
    INDEX 01 03:29:17
  TRACK 157 AUDIO
    TITLE "0:"
    INDEX 01 03:31:10
  TRACK 158 AUDIO
    TITLE "22:cjc171_15679"
    INDEX 01 03:31:45
  TRACK 159 AUDIO
    TITLE "0:"
    INDEX 01 03:33:34
  TRACK 160 AUDIO
    TITLE "23:cjc171_15680"
    INDEX 01 03:33:56
  TRACK 161 AUDIO
    TITLE "0:"
    INDEX 01 03:35:45
  TRACK 162 AUDIO
    TITLE "19:cjc171_15681"
    INDEX 01 03:36:48
  TRACK 163 AUDIO
    TITLE "0:"
    INDEX 01 03:37:55
  TRACK 164 AUDIO
    TITLE "20:cjc171_15682"
    INDEX 01 03:38:19
  TRACK 165 AUDIO
    TITLE "0:"
    INDEX 01 03:39:58
  TRACK 166 AUDIO
    TITLE "21:cjc171_15683"
    INDEX 01 03:40:58
  TRACK 167 AUDIO
    TITLE "0:"
    INDEX 01 03:43:27
  TRACK 168 AUDIO
    TITLE "22:cjc171_15684"
    INDEX 01 03:43:66
  TRACK 169 AUDIO
    TITLE "0:"
    INDEX 01 03:46:09
  TRACK 170 AUDIO
    TITLE "23:cjc171_15685"
    INDEX 01 03:46:43
  TRACK 171 AUDIO
    TITLE "0:"
    INDEX 01 03:48:59
  TRACK 172 AUDIO
    TITLE "19:cjc171_15686"
    INDEX 01 03:49:66
  TRACK 173 AUDIO
    TITLE "0:"
    INDEX 01 03:51:03
  TRACK 174 AUDIO
    TITLE "20:cjc171_15687"
    INDEX 01 03:51:44
  TRACK 175 AUDIO
    TITLE "0:"
    INDEX 01 03:53:62
  TRACK 176 AUDIO
    TITLE "21:cjc171_15688"
    INDEX 01 03:54:60
  TRACK 177 AUDIO
    TITLE "0:"
    INDEX 01 03:57:13
  TRACK 178 AUDIO
    TITLE "22:cjc171_15689"
    INDEX 01 03:57:52
  TRACK 179 AUDIO
    TITLE "0:"
    INDEX 01 04:00:05
  TRACK 180 AUDIO
    TITLE "23:cjc171_15690"
    INDEX 01 04:00:35
  TRACK 181 AUDIO
    TITLE "0:"
    INDEX 01 04:02:65
  TRACK 182 AUDIO
    TITLE "19:cjc171_15691"
    INDEX 01 04:03:64
  TRACK 183 AUDIO
    TITLE "0:"
    INDEX 01 04:04:74
  TRACK 184 AUDIO
    TITLE "20:cjc171_15692"
    INDEX 01 04:05:38
  TRACK 185 AUDIO
    TITLE "0:"
    INDEX 01 04:07:47
  TRACK 186 AUDIO
    TITLE "21:cjc171_15693"
    INDEX 01 04:08:48
  TRACK 187 AUDIO
    TITLE "0:"
    INDEX 01 04:10:66
  TRACK 188 AUDIO
    TITLE "22:cjc171_15694"
    INDEX 01 04:11:23
  TRACK 189 AUDIO
    TITLE "0:"
    INDEX 01 04:13:39
  TRACK 190 AUDIO
    TITLE "23:cjc171_15695"
    INDEX 01 04:13:61
  TRACK 191 AUDIO
    TITLE "0:"
    INDEX 01 04:16:02
  TRACK 192 AUDIO
    TITLE "19:cjc171_15696"
    INDEX 01 04:16:73
  TRACK 193 AUDIO
    TITLE "0:"
    INDEX 01 04:18:31
  TRACK 194 AUDIO
    TITLE "20:cjc171_15697"
    INDEX 01 04:18:70
  TRACK 195 AUDIO
    TITLE "0:"
    INDEX 01 04:21:39
  TRACK 196 AUDIO
    TITLE "21:cjc171_15698"
    INDEX 01 04:22:40
  TRACK 197 AUDIO
    TITLE "0:"
    INDEX 01 04:24:35
  TRACK 198 AUDIO
    TITLE "22:cjc171_15699"
    INDEX 01 04:24:72
  TRACK 199 AUDIO
    TITLE "0:"
    INDEX 01 04:27:28
  TRACK 200 AUDIO
    TITLE "23:cjc171_15700"
    INDEX 01 04:27:51
  TRACK 201 AUDIO
    TITLE "0:"
    INDEX 01 04:30:05
